[Header]
FileType HTR
DataType HTRS
FileVersion 1
NumSegments 64
NumFrames 3
DataFrameRate 24
EulerRotationOrder ZYX
CalibrationUnits mm
RotationUnits Degrees
GlobalAxisofGravity Y
BoneLengthAxis Y
ScaleFactor 1.0
[SegmentNames&Hierarchy]
Hips	GLOBAL
Spine	Hips
Spine1	Spine
Spine2	Spine1
Neck	Spine2
Head	Neck
LeftEye	Head
RightEye	Head
LeftShoulder	Spine2
LeftArm	LeftShoulder
LeftForeArm	LeftArm
LeftHand	LeftForeArm
LeftHandThumb1	LeftHand
LeftHandThumb2	LeftHandThumb1
LeftHandThumb3	LeftHandThumb2
LeftHandThumb4	LeftHandThumb3
LeftHandIndex1	LeftHand
LeftHandIndex2	LeftHandIndex1
LeftHandIndex3	LeftHandIndex2
LeftHandIndex4	LeftHandIndex3
LeftHandMiddle1	LeftHand
LeftHandMiddle2	LeftHandMiddle1
LeftHandMiddle3	LeftHandMiddle2
LeftHandMiddle4	LeftHandMiddle3
LeftHandRing1	LeftHand
LeftHandRing2	LeftHandRing1
LeftHandRing3	LeftHandRing2
LeftHandRing4	LeftHandRing3
LeftHandPinky1	LeftHand
LeftHandPinky2	LeftHandPinky1
LeftHandPinky3	LeftHandPinky2
LeftHandPinky4	LeftHandPinky3
RightShoulder	Spine2
RightArm	RightShoulder
RightForeArm	RightArm
RightHand	RightForeArm
RightHandPinky1	RightHand
RightHandPinky2	RightHandPinky1
RightHandPinky3	RightHandPinky2
RightHandPinky4	RightHandPinky3
RightHandRing1	RightHand
RightHandRing2	RightHandRing1
RightHandRing3	RightHandRing2
RightHandRing4	RightHandRing3
RightHandMiddle1	RightHand
RightHandMiddle2	RightHandMiddle1
RightHandMiddle3	RightHandMiddle2
RightHandMiddle4	RightHandMiddle3
RightHandIndex1	RightHand
RightHandIndex2	RightHandIndex1
RightHandIndex3	RightHandIndex2
RightHandIndex4	RightHandIndex3
RightHandThumb1	RightHand
RightHandThumb2	RightHandThumb1
RightHandThumb3	RightHandThumb2
RightHandThumb4	RightHandThumb3
LeftUpLeg	Hips
LeftLeg	LeftUpLeg
LeftFoot	LeftLeg
LeftToeBase	LeftFoot
RightUpLeg	Hips
RightLeg	RightUpLeg
RightFoot	RightLeg
RightToeBase	RightFoot
[BasePosition]
Hips	0	0	0	0	0	0	1
Spine	0	0	0	0	0	0	1
Spine1	0	0	0	0	0	0	1
Spine2	0	0	0	0	0	0	1
Neck	0	0	0	0	0	0	1
Head	0	0	0	0	0	0	1
LeftEye	0	0	0	0	0	0	1
RightEye	0	0	0	0	0	0	1
LeftShoulder	0	0	0	0	0	0	1
LeftArm	0	0	0	0	0	0	1
LeftForeArm	0	0	0	0	0	0	1
LeftHand	0	0	0	0	0	0	1
LeftHandThumb1	0	0	0	0	0	0	1
LeftHandThumb2	0	0	0	0	0	0	1
LeftHandThumb3	0	0	0	0	0	0	1
LeftHandThumb4	0	0	0	0	0	0	1
LeftHandIndex1	0	0	0	0	0	0	1
LeftHandIndex2	0	0	0	0	0	0	1
LeftHandIndex3	0	0	0	0	0	0	1
LeftHandIndex4	0	0	0	0	0	0	1
LeftHandMiddle1	0	0	0	0	0	0	1
LeftHandMiddle2	0	0	0	0	0	0	1
LeftHandMiddle3	0	0	0	0	0	0	1
LeftHandMiddle4	0	0	0	0	0	0	1
LeftHandRing1	0	0	0	0	0	0	1
LeftHandRing2	0	0	0	0	0	0	1
LeftHandRing3	0	0	0	0	0	0	1
LeftHandRing4	0	0	0	0	0	0	1
LeftHandPinky1	0	0	0	0	0	0	1
LeftHandPinky2	0	0	0	0	0	0	1
LeftHandPinky3	0	0	0	0	0	0	1
LeftHandPinky4	0	0	0	0	0	0	1
RightShoulder	0	0	0	0	0	0	1
RightArm	0	0	0	0	0	0	1
RightForeArm	0	0	0	0	0	0	1
RightHand	0	0	0	0	0	0	1
RightHandPinky1	0	0	0	0	0	0	1
RightHandPinky2	0	0	0	0	0	0	1
RightHandPinky3	0	0	0	0	0	0	1
RightHandPinky4	0	0	0	0	0	0	1
RightHandRing1	0	0	0	0	0	0	1
RightHandRing2	0	0	0	0	0	0	1
RightHandRing3	0	0	0	0	0	0	1
RightHandRing4	0	0	0	0	0	0	1
RightHandMiddle1	0	0	0	0	0	0	1
RightHandMiddle2	0	0	0	0	0	0	1
RightHandMiddle3	0	0	0	0	0	0	1
RightHandMiddle4	0	0	0	0	0	0	1
RightHandIndex1	0	0	0	0	0	0	1
RightHandIndex2	0	0	0	0	0	0	1
RightHandIndex3	0	0	0	0	0	0	1
RightHandIndex4	0	0	0	0	0	0	1
RightHandThumb1	0	0	0	0	0	0	1
RightHandThumb2	0	0	0	0	0	0	1
RightHandThumb3	0	0	0	0	0	0	1
RightHandThumb4	0	0	0	0	0	0	1
LeftUpLeg	0	0	0	0	0	0	1
LeftLeg	0	0	0	0	0	0	1
LeftFoot	0	0	0	0	0	0	1
LeftToeBase	0	0	0	0	0	0	1
RightUpLeg	0	0	0	0	0	0	1
RightLeg	0	0	0	0	0	0	1
RightFoot	0	0	0	0	0	0	1
RightToeBase	0	0	0	0	0	0	1
[Hips]
6	99.55718994	1007.702026	21.55294037	0.477486074	-14.50489616	-5.471809864	1.0
7	109.1825485	1007.475037	32.35557938	0.7969636917	-17.69960403	-5.55163002	1.0
8	111.8501358	1007.876526	40.75654602	1.128015041	-20.89550209	-5.652009487	1.0
[Spine]
6	0	101.8159943	1.315000057	1.104658008	-4.382040977	3.155263424	1.0
7	0	101.8159943	1.315000057	1.259599447	-5.180550098	3.350473166	1.0
8	0	101.8159943	1.315000057	1.421676397	-5.897450924	3.520964622	1.0
[Spine1]
6	0	100.8349991	-10.00800037	0.4605734944	-3.843551159	6.412819862	1.0
7	0	100.8349991	-10.00800037	0.4761416912	-4.994706154	6.32839489	1.0
8	0	100.8349991	-10.00800037	0.529502511	-5.982464314	6.123779774	1.0
[Spine2]
6	0	91	-13.73399925	0.7081171274	-3.349765301	6.37571907	1.0
7	0	91	-13.73399925	0.7468237877	-4.509685516	6.300133228	1.0
8	0	91	-13.73399925	0.8043432832	-5.506755352	6.099790096	1.0
[Neck]
6	0	166.7169952	-25.16200066	-0.2098303437	0.8213527799	-0.4464073181	1.0
7	0	166.7169952	-25.16200066	-0.2651185691	-0.09437016398	0.1578916609	1.0
8	0	166.7169952	-25.16200066	-0.29246822	-0.8981623054	0.7014040351	1.0
[Head]
6	0	96.17900085	16.84999847	-1.913406372	5.247109413	-8.626756668	1.0
7	0	96.17900085	16.84999847	-2.756867886	4.454837799	-8.316407204	1.0
8	0	96.17900085	16.84999847	-3.721120834	3.836923838	-7.920785904	1.0
[LeftEye]
6	30.6760006	64.09500122	92.83599854	0	0	0	1.0
7	30.6760006	64.09500122	92.83599854	0	0	0	1.0
8	30.6760006	64.09500122	92.83599854	0	0	0	1.0
[RightEye]
6	-30.6760006	64.09500122	92.83499908	0	0	0	1.0
7	-30.6760006	64.09500122	92.83499908	0	0	0	1.0
8	-30.6760006	64.09500122	92.83499908	0	0	0	1.0
[LeftShoulder]
6	45.70400238	109.4599991	-26.28000069	4.820287228	-14.55570412	-4.89169693	1.0
7	45.70400238	109.4599991	-26.28000069	4.794935703	-14.79450989	-4.596885204	1.0
8	45.70400238	109.4599991	-26.28000069	4.75962925	-15.18341923	-4.224074364	1.0
[LeftArm]
6	105.923996	-5.24600029	-22.32099915	-4.641302586	8.714503288	-85.64578247	1.0
7	105.923996	-5.24600029	-22.32099915	-5.262201309	9.945355415	-86.05210114	1.0
8	105.923996	-5.24600029	-22.32099915	-5.671826839	10.70432663	-86.56053162	1.0
[LeftForeArm]
6	278.414978	-0.0009999999311	0	-6.557620509e-07	-11.76974583	-0.0002234869753	1.0
7	278.414978	-0.0009999999311	0	6.629634299e-06	-10.84737682	-0.0002366946428	1.0
8	278.414978	-0.0009999999311	0	7.371868833e-06	-10.35991764	-0.0002300677006	1.0
[LeftHand]
6	283.2879944	0	0	-26.68009567	2.951608658	-10.58586979	1.0
7	283.2879944	0	0	-26.27923012	4.101260185	-10.51617813	1.0
8	283.2879944	0	0	-25.99315834	4.810339451	-10.60219383	1.0
[LeftHandThumb1]
6	24.6609993	-15.75	26.8239994	18.69189453	-3.425424337	10.03138924	1.0
7	24.6609993	-15.75	26.8239994	18.74539566	-3.262559652	10.1021347	1.0
8	24.6609993	-15.75	26.8239994	18.69914818	-3.191784143	10.19317913	1.0
[LeftHandThumb2]
6	32.29800034	-18.64699936	18.64699936	-0.269993037	32.3062706	-2.520102739	1.0
7	32.29800034	-18.64699936	18.64699936	-0.180285275	32.21683121	-2.467561245	1.0
8	32.29800034	-18.64699936	18.64699936	-0.1269166023	32.22623825	-2.476071358	1.0
[LeftHandThumb3]
6	26.52600098	-15.31499958	15.31499958	2.12065196	9.420138359	-0.04598806053	1.0
7	26.52600098	-15.31499958	15.31499958	2.125091553	9.434036255	-0.04962241277	1.0
8	26.52600098	-15.31499958	15.31499958	2.126572609	9.438726425	-0.0508274734	1.0
[LeftHandThumb4]
6	19.54599953	-11.28499985	11.28499985	0	0	0	1.0
7	19.54599953	-11.28499985	11.28499985	0	0	0	1.0
8	19.54599953	-11.28499985	11.28499985	0	0	0	1.0
[LeftHandIndex1]
6	91.09299469	-5.170999527	22.60099792	-0.1977629364	4.788194656	-7.212467194	1.0
7	91.09299469	-5.170999527	22.60099792	-0.1803651452	4.802249908	-7.096634388	1.0
8	91.09299469	-5.170999527	22.60099792	-0.1891991198	4.787215233	-7.142707348	1.0
[LeftHandIndex2]
6	36.76399994	0	0	-0.6251939535	2.764816761	-20.51009178	1.0
7	36.76399994	0	0	-0.6247935891	2.76407671	-20.50179672	1.0
8	36.76399994	0	0	-0.6254668236	2.765323877	-20.51572037	1.0
[LeftHandIndex3]
6	28.83100128	0	0	-0.1086305678	0.7993254662	-10.10775948	1.0
7	28.83100128	0	0	-0.1084858254	0.7985102534	-10.09949875	1.0
8	28.83100128	0	0	-0.108729437	0.7998852134	-10.11340141	1.0
[LeftHandIndex4]
6	23.92700005	0	0	0	0	0	1.0
7	23.92700005	0	0	0	0	0	1.0
8	23.92700005	0	0	0	0	0	1.0
[LeftHandMiddle1]
6	95.33399963	0	0	-1.436974287	8.658014297	-15.17190266	1.0
7	95.33399963	0	0	-1.424051046	8.642300606	-15.06436634	1.0
8	95.33399963	0	0	-1.431818843	8.628369331	-15.13094234	1.0
[LeftHandMiddle2]
6	36.98199844	0	0	-1.424496651	3.820807457	-33.38290024	1.0
7	36.98199844	0	0	-1.424103856	3.820380926	-33.37717819	1.0
8	36.98199844	0	0	-1.424466491	3.820773125	-33.38246918	1.0
[LeftHandMiddle3]
6	29.50900078	0	0	-0.1482435763	1.482364416	-12.23091316	1.0
7	29.50900078	0	0	-0.1481108218	1.48179543	-12.22500801	1.0
8	29.50900078	0	0	-0.1482211798	1.482254505	-12.22977066	1.0
[LeftHandMiddle4]
6	28.3390007	0	0	0	0	0	1.0
7	28.3390007	0	0	0	0	0	1.0
8	28.3390007	0	0	0	0	0	1.0
[LeftHandRing1]
6	91.04499817	-0.4390000105	-18.65100098	-2.961195707	11.62819481	-26.45111847	1.0
7	91.04499817	-0.4390000105	-18.65100098	-2.948611021	11.63087177	-26.3530426	1.0
8	91.04499817	-0.4390000105	-18.65100098	-2.951616287	11.6214962	-26.379776	1.0
[LeftHandRing2]
6	31.54000092	0	0	-1.197998762	4.056170464	-40.20998764	1.0
7	31.54000092	0	0	-1.198468328	4.056767941	-40.21767807	1.0
8	31.54000092	0	0	-1.199521065	4.058112144	-40.2348938	1.0
[LeftHandRing3]
6	29.37700081	0	0	-0.092511639	1.904506445	-19.34951782	1.0
7	29.37700081	0	0	-0.09269603342	1.90527153	-19.3574295	1.0
8	29.37700081	0	0	-0.09309073538	1.906896472	-19.37423706	1.0
[LeftHandRing4]
6	26.47500038	0	0	0	0	0	1.0
7	26.47500038	0	0	0	0	0	1.0
8	26.47500038	0	0	0	0	0	1.0
[LeftHandPinky1]
6	80.77799988	-4.887000084	-38.06099701	-5.169621468	16.37142944	-36.3868103	1.0
7	80.77799988	-4.887000084	-38.06099701	-5.155269146	16.39637375	-36.2690773	1.0
8	80.77799988	-4.887000084	-38.06099701	-5.15319109	16.37461472	-36.26708984	1.0
[LeftHandPinky2]
6	36	0	0	-1.946354747	3.818170071	-45.67331696	1.0
7	36	0	0	-1.945502639	3.817428112	-45.66204071	1.0
8	36	0	0	-1.944698334	3.816724539	-45.65133667	1.0
[LeftHandPinky3]
6	21.14200211	0	0	-0.5437846184	2.834677219	-20.53744698	1.0
7	21.14200211	0	0	-0.5432963371	2.83365941	-20.52619934	1.0
8	21.14200211	0	0	-0.5428427458	2.832695723	-20.51552773	1.0
[LeftHandPinky4]
6	19.75699997	0	0	0	0	0	1.0
7	19.75699997	0	0	0	0	0	1.0
8	19.75699997	0	0	0	0	0	1.0
[RightShoulder]
6	-45.70000076	109.4620056	-26.28000069	5.240569115	2.402008057	7.562090397	1.0
7	-45.70000076	109.4620056	-26.28000069	5.288973808	2.520568609	7.80698061	1.0
8	-45.70000076	109.4620056	-26.28000069	5.254717827	2.765762568	7.697892189	1.0
[RightArm]
6	-105.9280014	-5.248000145	-22.32099915	-6.687294483	-1.075678587	64.85939026	1.0
7	-105.9280014	-5.248000145	-22.32099915	-8.784970284	-1.444787145	64.46876526	1.0
8	-105.9280014	-5.248000145	-22.32099915	-10.30409431	-1.819627047	64.63878632	1.0
[RightForeArm]
6	-278.414978	0	0	1.334831609e-06	22.26197433	1.103287377e-05	1.0
7	-278.414978	0	0	-7.282906722e-07	24.20567513	2.959351377e-06	1.0
8	-278.414978	0	0	1.154401843e-06	25.27593803	1.293455171e-06	1.0
[RightHand]
6	-283.2879944	0	0.0009999999311	-11.51063728	2.624492645	6.698391914	1.0
7	-283.2879944	0	0.0009999999311	-12.42095757	4.742076397	4.065473557	1.0
8	-283.2879944	0	0.0009999999311	-13.07836056	5.806490898	2.714415312	1.0
[RightHandPinky1]
6	-80.76699829	-4.885000229	-38.06000137	-5.332767487	-16.01060486	37.93601227	1.0
7	-80.76699829	-4.885000229	-38.06000137	-5.286565304	-15.93907166	37.67998505	1.0
8	-80.76699829	-4.885000229	-38.06000137	-5.268913746	-15.9556818	37.52518463	1.0
[RightHandPinky2]
6	-36	0	0.0009999999311	-1.930533171	-3.803813696	45.48054504	1.0
7	-36	0	0.0009999999311	-1.934291363	-3.807116985	45.5307312	1.0
8	-36	0	0.0009999999311	-1.935616493	-3.8082757	45.54841614	1.0
[RightHandPinky3]
6	-21.14200211	0	0	-0.7571826577	0.0710220933	21.94230652	1.0
7	-21.14200211	0	0	-0.7594468594	0.06654397398	21.99227142	1.0
8	-21.14200211	0	0	-0.7602447867	0.06497100741	22.00986862	1.0
[RightHandPinky4]
6	-19.75699997	0	0	0	0	0	1.0
7	-19.75699997	0	0	0	0	0	1.0
8	-19.75699997	0	0	0	0	0	1.0
[RightHandRing1]
6	-91.03599548	-0.4390000105	-18.65100098	-3.115447044	-11.40389824	27.71931839	1.0
7	-91.03599548	-0.4390000105	-18.65100098	-3.068863869	-11.36674595	27.37677002	1.0
8	-91.03599548	-0.4390000105	-18.65100098	-3.047103167	-11.36750412	27.20966148	1.0
[RightHandRing2]
6	-31.54000092	0	0	-1.201158643	-4.05992794	40.26493835	1.0
7	-31.54000092	0	0	-1.203676224	-4.06314373	40.30617905	1.0
8	-31.54000092	0	0	-1.203914642	-4.063445091	40.31003571	1.0
[RightHandRing3]
6	-29.37700081	0	0	-0.1395596266	0.08429139853	17.87449646	1.0
7	-29.37700081	0	0	-0.1404216588	0.0803181529	17.91539383	1.0
8	-29.37700081	0	0	-0.1405074894	0.07992141694	17.91947365	1.0
[RightHandRing4]
6	-26.47500038	0	0	0	0	0	1.0
7	-26.47500038	0	0	0	0	0	1.0
8	-26.47500038	0	0	0	0	0	1.0
[RightHandMiddle1]
6	-95.32500458	0	0	-1.61473012	-8.458471298	16.67218399	1.0
7	-95.32500458	0	0	-1.561990499	-8.308587074	16.24740982	1.0
8	-95.32500458	0	0	-1.540646195	-8.301177025	16.07044601	1.0
[RightHandMiddle2]
6	-36.98199844	0	0	-1.438892365	-3.836052895	33.59442902	1.0
7	-36.98199844	0	0	-1.441256523	-3.838592291	33.62879562	1.0
8	-36.98199844	0	0	-1.440570116	-3.837855577	33.61883163	1.0
[RightHandMiddle3]
6	-29.50900078	0	0	-0.2584888935	-1.694588661	16.07124901	1.0
7	-29.50900078	0	0	-0.259447664	-1.697681189	16.10377693	1.0
8	-29.50900078	0	0	-0.2591581643	-1.696754456	16.09397507	1.0
[RightHandMiddle4]
6	-28.3390007	0	0.0009999999311	0	0	0	1.0
7	-28.3390007	0	0.0009999999311	0	0	0	1.0
8	-28.3390007	0	0.0009999999311	0	0	0	1.0
[RightHandIndex1]
6	-91.08300018	-5.167999744	22.60099792	-0.4708081782	-4.794022083	9.420880318	1.0
7	-91.08300018	-5.167999744	22.60099792	-0.4276612997	-4.720021248	8.900837898	1.0
8	-91.08300018	-5.167999744	22.60099792	-0.3980453908	-4.698675632	8.634990692	1.0
[RightHandIndex2]
6	-36.76399994	0	0	-0.6212918758	-2.757374763	20.43008041	1.0
7	-36.76399994	0	0	-0.6223389506	-2.759320498	20.45180702	1.0
8	-36.76399994	0	0	-0.6238922477	-2.762208462	20.4840107	1.0
[RightHandIndex3]
6	-28.83100128	0	0	-0.2350915968	-0.1435278505	13.70193291	1.0
7	-28.83100128	0	0	-0.2356099337	-0.1456468105	13.72362137	1.0
8	-28.83100128	0	0	-0.2363764346	-0.1487815231	13.75575066	1.0
[RightHandIndex4]
6	-23.92700005	0	0	0	0	0	1.0
7	-23.92700005	0	0	0	0	0	1.0
8	-23.92700005	0	0	0	0	0	1.0
[RightHandThumb1]
6	-24.64799881	-15.72700024	26.82600021	16.11872482	7.120660782	-10.89318848	1.0
7	-24.64799881	-15.72700024	26.82600021	16.06382561	7.233904839	-10.95255089	1.0
8	-24.64799881	-15.72700024	26.82600021	16.18548584	7.065395832	-10.93378162	1.0
[RightHandThumb2]
6	-32.29800034	-18.64699936	18.64699936	-0.4555086493	-33.80020142	2.534595251	1.0
7	-32.29800034	-18.64699936	18.64699936	-0.4213910401	-33.56801987	2.407786369	1.0
8	-32.29800034	-18.64699936	18.64699936	-0.4105820656	-33.40651321	2.391983032	1.0
[RightHandThumb3]
6	-26.52600098	-15.31399918	15.31399918	1.849321723	-8.689090729	-0.4780057073	1.0
7	-26.52600098	-15.31399918	15.31399918	1.841770768	-8.61065197	-0.810962081	1.0
8	-26.52600098	-15.31399918	15.31399918	1.840134144	-8.555751801	-0.8457781672	1.0
[RightHandThumb4]
6	-19.54599953	-11.28499985	11.28499985	0	0	0	1.0
7	-19.54599953	-11.28499985	11.28499985	0	0	0	1.0
8	-19.54599953	-11.28499985	11.28499985	0	0	0	1.0
[LeftUpLeg]
6	82.07800293	-67.51699829	-15.99599934	-18.11318588	21.63921356	7.501868725	1.0
7	82.07800293	-67.51699829	-15.99599934	-17.42864037	22.90592957	6.707370758	1.0
8	82.07800293	-67.51699829	-15.99599934	-16.64100456	24.02918625	6.15336895	1.0
[LeftLeg]
6	0	-443.7049866	2.845999956	31.83739662	8.118899345	5.659791946	1.0
7	0	-443.7049866	2.845999956	32.15587234	7.716301918	6.159107208	1.0
8	0	-443.7049866	2.845999956	31.9573555	7.260676861	6.844049454	1.0
[LeftFoot]
6	0	-444.2789917	-29.8219986	-11.39810658	11.95225716	-6.698916435	1.0
7	0	-444.2789917	-29.8219986	-12.86628246	13.96580601	-7.493550777	1.0
8	0	-444.2789917	-29.8219986	-13.82934666	16.07266808	-8.706411362	1.0
[LeftToeBase]
6	0	-87.28699493	107.1060028	-0.1541186869	-5.659539056e-06	-2.926015895e-06	1.0
7	0	-87.28699493	107.1060028	-0.2681625187	-1.16636711e-05	-2.925942908e-06	1.0
8	0	-87.28699493	107.1060028	-0.3732570708	-8.371058357e-06	-1.156023586e-06	1.0
[RightUpLeg]
6	-82.07800293	-67.51699829	-15.99599934	-8.90500927	-0.8170289993	1.867213011	1.0
7	-82.07800293	-67.51699829	-15.99599934	-8.853209496	-0.356598258	0.6362404823	1.0
8	-82.07800293	-67.51699829	-15.99599934	-9.11396122	-0.7600246072	-0.02091426216	1.0
[RightLeg]
6	0	-443.7049866	2.861999989	23.34114075	-0.7273880839	6.803741455	1.0
7	0	-443.7049866	2.861999989	23.3526001	1.138933063	8.532401085	1.0
8	0	-443.7049866	2.861999989	23.13212967	2.419134617	10.12469864	1.0
[RightFoot]
6	0	-444.2770081	-29.83799934	-13.50694275	4.760483742	-4.68659687	1.0
7	0	-444.2770081	-29.83799934	-13.39724731	1.863100171	-4.258737564	1.0
8	0	-444.2770081	-29.83799934	-12.76257133	-2.735973835	-4.032942295	1.0
[RightToeBase]
6	0	-87.28699493	107.1060028	-0.8936168551	-3.524293334e-06	5.54290466e-07	1.0
7	0	-87.28699493	107.1060028	-1.613696218	-1.819499971e-06	2.368924925e-06	1.0
8	0	-87.28699493	107.1060028	-2.070327759	0.0002858037478	-0.02057721093	1.0
[EndOfFile]
